<svg xmlns="http://www.w3.org/2000/svg" xmlns:xlink="http://www.w3.org/1999/xlink" viewBox="0 0 363.29 363.29"><defs><style>.cls-1{fill:url(#radial-gradient);}.cls-2{fill:#22a1aa;}.cls-3{fill:none;stroke:#1d1d1b;stroke-miterlimit:10;stroke-width:0.25px;}.cls-4{fill:url(#linear-gradient);}.cls-5{fill:url(#linear-gradient-2);}.cls-6{fill:url(#linear-gradient-3);}.cls-7{fill:url(#linear-gradient-4);}.cls-8{fill:#23c2d9;}.cls-9{fill:#fa4d23;}</style><radialGradient id="radial-gradient" cx="181.65" cy="181.65" r="181.65" gradientUnits="userSpaceOnUse"><stop offset="0" stop-color="#ededed"/><stop offset="0.67" stop-color="#efefef"/><stop offset="1" stop-color="#f6f6f6"/></radialGradient><linearGradient id="linear-gradient" x1="26.73" y1="119.33" x2="184.68" y2="241.97" gradientUnits="userSpaceOnUse"><stop offset="0" stop-color="#fa4d23"/><stop offset="0.2" stop-color="#cd6549"/><stop offset="0.75" stop-color="#54a7b0"/><stop offset="1" stop-color="#23c2d9"/></linearGradient><linearGradient id="linear-gradient-2" x1="41.63" y1="85.12" x2="211.73" y2="237.6" gradientUnits="userSpaceOnUse"><stop offset="0" stop-color="#fa4d23"/><stop offset="0.13" stop-color="#f64f27"/><stop offset="0.26" stop-color="#e95631"/><stop offset="0.4" stop-color="#d46243"/><stop offset="0.55" stop-color="#b6725c"/><stop offset="0.69" stop-color="#90877d"/><stop offset="0.84" stop-color="#61a0a4"/><stop offset="0.98" stop-color="#2bbed2"/><stop offset="1" stop-color="#23c2d9"/></linearGradient><linearGradient id="linear-gradient-3" x1="114.99" y1="88.57" x2="285.39" y2="225.2" gradientUnits="userSpaceOnUse"><stop offset="0" stop-color="#fa4d23"/><stop offset="0.22" stop-color="#c46a51"/><stop offset="0.6" stop-color="#6e999a"/><stop offset="0.87" stop-color="#38b7c7"/><stop offset="1" stop-color="#23c2d9"/></linearGradient><linearGradient id="linear-gradient-4" x1="178.85" y1="44.99" x2="294.51" y2="185.28" gradientUnits="userSpaceOnUse"><stop offset="0" stop-color="#fa4d23"/><stop offset="0.19" stop-color="#bf6d55"/><stop offset="0.4" stop-color="#888b83"/><stop offset="0.59" stop-color="#5ca3a8"/><stop offset="0.76" stop-color="#3db4c3"/><stop offset="0.9" stop-color="#2abed3"/><stop offset="1" stop-color="#23c2d9"/></linearGradient></defs><g id="Layer_2" data-name="Layer 2"><g id="Logo"><rect class="cls-1" width="363.29" height="363.29" rx="104.72"/><polygon class="cls-2" points="190.42 285.64 156.65 285.64 173.66 257.45 206.65 257.32 190.42 285.64"/><polyline class="cls-3" points="56.69 117.78 72.82 89.68 106.69 89.46"/><polygon class="cls-4" points="173.66 257.45 72.82 89.68 56.69 117.78 156.65 285.64 173.66 257.45"/><polygon class="cls-2" points="244.29 209.96 210.52 209.96 227.53 181.77 260.52 181.65 244.29 209.96"/><polygon class="cls-5" points="72.82 89.68 106.69 89.46 206.65 257.32 173.66 257.45 72.82 89.68"/><polygon class="cls-6" points="171.77 89.31 155.64 117.4 210.52 209.96 227.56 181.85 171.77 89.31"/><polygon class="cls-7" points="297.42 117.26 279.19 88.97 171.7 89.17 227.5 181.71 260.45 181.51 222.39 117.32 297.42 117.26"/><polyline class="cls-2" points="222.46 117.46 297.49 117.4 281.26 145.72 239.21 145.72 281.26 145.72 239.21 145.72"/><circle class="cls-8" cx="272.92" cy="231.14" r="16.57"/><circle class="cls-9" cx="241.72" cy="275.9" r="16.57"/></g></g></svg>