<svg xmlns="http://www.w3.org/2000/svg" xmlns:xlink="http://www.w3.org/1999/xlink" viewBox="0 0 977.52 225.02"><defs><style>.cls-1{fill:#fa4d23;}.cls-2{fill:#22a1aa;}.cls-3{fill:none;stroke:#1d1d1b;stroke-miterlimit:10;stroke-width:0.25px;}.cls-4{fill:url(#linear-gradient);}.cls-5{fill:url(#linear-gradient-2);}.cls-6{fill:url(#linear-gradient-3);}.cls-7{fill:url(#linear-gradient-4);}</style><linearGradient id="linear-gradient" x1="-29.85" y1="58.71" x2="128.09" y2="181.34" gradientUnits="userSpaceOnUse"><stop offset="0" stop-color="#fa4d23"/><stop offset="0.2" stop-color="#cd6549"/><stop offset="0.75" stop-color="#54a7b0"/><stop offset="1" stop-color="#23c2d9"/></linearGradient><linearGradient id="linear-gradient-2" x1="-14.96" y1="24.49" x2="155.15" y2="176.97" gradientUnits="userSpaceOnUse"><stop offset="0" stop-color="#fa4d23"/><stop offset="0.13" stop-color="#f64f27"/><stop offset="0.26" stop-color="#e95631"/><stop offset="0.4" stop-color="#d46243"/><stop offset="0.55" stop-color="#b6725c"/><stop offset="0.69" stop-color="#90877d"/><stop offset="0.84" stop-color="#61a0a4"/><stop offset="0.98" stop-color="#2bbed2"/><stop offset="1" stop-color="#23c2d9"/></linearGradient><linearGradient id="linear-gradient-3" x1="506.22" y1="11.62" x2="769.57" y2="185.3" gradientUnits="userSpaceOnUse"><stop offset="0" stop-color="#fa4d23"/><stop offset="0.19" stop-color="#bf6d55"/><stop offset="0.39" stop-color="#888b83"/><stop offset="0.58" stop-color="#5ca3a8"/><stop offset="0.75" stop-color="#3db4c3"/><stop offset="0.89" stop-color="#2abed3"/><stop offset="0.99" stop-color="#23c2d9"/></linearGradient><linearGradient id="linear-gradient-4" x1="480.96" y1="12.21" x2="701.41" y2="234.6" gradientUnits="userSpaceOnUse"><stop offset="0" stop-color="#fa4d23"/><stop offset="0.22" stop-color="#c46a51"/><stop offset="0.6" stop-color="#6e999a"/><stop offset="0.87" stop-color="#38b7c7"/><stop offset="1" stop-color="#23c2d9"/></linearGradient></defs><g id="Layer_2" data-name="Layer 2"><g id="Logo"><path d="M304.48,153.51H190q1.41,17,11.88,26.58t25.73,9.62q22,0,31.39-19h42.7a71.32,71.32,0,0,1-26,37.19q-19.23,14.56-47.22,14.56-22.64,0-40.58-10a70.54,70.54,0,0,1-28-28.42q-10-18.37-10-42.42,0-24.31,9.9-42.7A69.2,69.2,0,0,1,187.4,70.65q17.82-9.89,41-9.89,22.34,0,40,9.61a67.68,67.68,0,0,1,27.43,27.29q9.76,17.67,9.76,40.58A93.81,93.81,0,0,1,304.48,153.51Zm-39.87-26.58q-.28-15.27-11-24.46t-26.3-9.19q-14.72,0-24.75,8.9t-12.3,24.75Z"/><path d="M394,68.11Q406.28,61,422.12,61v41.57H411.65q-18.66,0-28.13,8.77T374,141.92V220H334.45V63.3H374V87.62A55.68,55.68,0,0,1,394,68.11Z"/><path d="M488.29,63.3V220H448.7V63.3Z"/><path d="M774.91,68.09Q787.21,61,803,61v41.57H792.58q-18.66,0-28.14,8.77T755,141.9v78H715.38V63.28H755V87.6A55.68,55.68,0,0,1,774.91,68.09Z"/><path d="M977.52,63.28V220H937.65v-19.8a52.22,52.22,0,0,1-19.94,16,61.93,61.93,0,0,1-26.72,5.8q-18.39,0-32.52-7.78a54.78,54.78,0,0,1-22.2-22.9q-8.06-15.13-8.06-36.06V63.28H867.8v86.25q0,18.67,9.33,28.71t25.45,10q16.41,0,25.74-10t9.33-28.71V63.28Z"/><circle class="cls-1" cx="468.49" cy="23.68" r="23.68"/><polygon class="cls-2" points="133.84 225.02 100.06 225.02 117.08 196.83 150.06 196.7 133.84 225.02"/><polyline class="cls-3" points="0.11 57.16 16.24 29.06 50.11 28.84"/><polygon class="cls-4" points="117.08 196.83 16.24 29.06 0.11 57.16 100.06 225.02 117.08 196.83"/><polygon class="cls-5" points="16.24 29.06 50.11 28.84 150.06 196.7 117.08 196.83 16.24 29.06"/><polygon class="cls-6" points="547.81 23.97 655.29 23.77 673.59 52.2 598.49 52.12 681.7 191.64 648.72 191.76 547.81 23.97"/><polygon class="cls-7" points="531.74 52.2 547.81 23.97 648.72 191.76 631.7 219.95 531.74 52.2"/><polygon class="cls-2" points="665.47 219.95 631.7 219.95 648.72 191.76 681.7 191.64 665.47 219.95"/><polygon class="cls-2" points="615.31 80.51 657.36 80.51 673.59 52.2 598.49 52.12 615.31 80.51"/></g></g></svg>