<svg xmlns="http://www.w3.org/2000/svg" xmlns:xlink="http://www.w3.org/1999/xlink" viewBox="0 0 1081.04 163.52"><defs><style>.cls-1{fill:#23c2d9;}.cls-2{fill:#fa4d23;}.cls-3{fill:#22a1aa;}.cls-4{fill:none;stroke:#1d1d1b;stroke-miterlimit:10;stroke-width:0.25px;}.cls-5{fill:url(#linear-gradient);}.cls-6{fill:url(#linear-gradient-2);}.cls-7{fill:url(#linear-gradient-3);}.cls-8{fill:url(#linear-gradient-4);}</style><linearGradient id="linear-gradient" x1="-15.91" y1="33.72" x2="68.54" y2="99.29" gradientUnits="userSpaceOnUse"><stop offset="0" stop-color="#fa4d23"/><stop offset="0.2" stop-color="#cd6549"/><stop offset="0.75" stop-color="#54a7b0"/><stop offset="1" stop-color="#23c2d9"/></linearGradient><linearGradient id="linear-gradient-2" x1="-7.95" y1="15.43" x2="83" y2="96.95" gradientUnits="userSpaceOnUse"><stop offset="0" stop-color="#fa4d23"/><stop offset="0.13" stop-color="#f64f27"/><stop offset="0.26" stop-color="#e95631"/><stop offset="0.4" stop-color="#d46243"/><stop offset="0.55" stop-color="#b6725c"/><stop offset="0.69" stop-color="#90877d"/><stop offset="0.84" stop-color="#61a0a4"/><stop offset="0.98" stop-color="#2bbed2"/><stop offset="1" stop-color="#23c2d9"/></linearGradient><linearGradient id="linear-gradient-3" x1="668.05" y1="7.54" x2="808.86" y2="100.4" gradientUnits="userSpaceOnUse"><stop offset="0" stop-color="#fa4d23"/><stop offset="0.19" stop-color="#bf6d55"/><stop offset="0.39" stop-color="#888b83"/><stop offset="0.58" stop-color="#5ca3a8"/><stop offset="0.75" stop-color="#3db4c3"/><stop offset="0.89" stop-color="#2abed3"/><stop offset="0.99" stop-color="#23c2d9"/></linearGradient><linearGradient id="linear-gradient-4" x1="654.55" y1="7.86" x2="772.42" y2="126.76" gradientUnits="userSpaceOnUse"><stop offset="0" stop-color="#fa4d23"/><stop offset="0.22" stop-color="#c46a51"/><stop offset="0.6" stop-color="#6e999a"/><stop offset="0.87" stop-color="#38b7c7"/><stop offset="1" stop-color="#23c2d9"/></linearGradient></defs><g id="Layer_2" data-name="Layer 2"><g id="Logo"><path d="M320.12,54.94H305.33v67H283.67V54.94h-9.6V37.41h9.6V33.14q0-15.55,8.85-22.88T319.2,3.4v18q-7.77-.15-10.82,2.59t-3.05,9.91v3.51h14.79Z"/><path d="M414.82,37.41,362.51,161.84H339.79l18.3-42.09L324.23,37.41h23.95l21.8,59,22.11-59Z"/><path d="M447.6,37.41v84.48H426.25V37.41Z"/><path d="M539.86,45.72q9.3,9.53,9.3,26.61v49.56H527.81V75.23q0-10.07-5-15.48t-13.72-5.42q-8.85,0-14,5.42T490,75.23v46.66H468.65V37.41H490V47.93a29.63,29.63,0,0,1,10.91-8.62,33.75,33.75,0,0,1,14.56-3.12Q530.56,36.19,539.86,45.72Z"/><path d="M619.16,39.77a30.65,30.65,0,0,1,11.28,9.68v-12h21.5V122.5a45.37,45.37,0,0,1-4.72,21A35.13,35.13,0,0,1,633,158.11q-9.45,5.4-22.87,5.41-18,0-29.51-8.39a31.11,31.11,0,0,1-13-22.87h21.2a15.79,15.79,0,0,0,7.25,9.23,25.25,25.25,0,0,0,13.49,3.43q9.3,0,15.1-5.57t5.79-16.85V109.39a32.49,32.49,0,0,1-11.36,9.91,33.91,33.91,0,0,1-16.54,4A36.26,36.26,0,0,1,583,117.77a38.25,38.25,0,0,1-14-15.48,49.73,49.73,0,0,1-5.11-23,49,49,0,0,1,5.11-22.72,37.45,37.45,0,0,1,13.88-15.25A36.93,36.93,0,0,1,602.54,36,35.47,35.47,0,0,1,619.16,39.77Zm8.23,26.54a21.44,21.44,0,0,0-8.23-8.54,22,22,0,0,0-11.13-3,21.46,21.46,0,0,0-19.14,11.36,26.45,26.45,0,0,0-3.13,13.19,27.35,27.35,0,0,0,3.13,13.35,22.5,22.5,0,0,0,8.23,8.77A21,21,0,0,0,608,104.51a22.05,22.05,0,0,0,11.13-3A21.5,21.5,0,0,0,627.39,93a27.31,27.31,0,0,0,3.05-13.34A27.28,27.28,0,0,0,627.39,66.31Z"/><circle class="cls-1" cx="436.93" cy="12.66" r="12.48"/><path d="M162.84,84.41H101.61q.75,9.07,6.35,14.21a19.58,19.58,0,0,0,13.76,5.14q11.79,0,16.78-10.13h22.83a38.12,38.12,0,0,1-13.91,19.89q-10.28,7.78-25.25,7.78a43.7,43.7,0,0,1-21.7-5.37,37.66,37.66,0,0,1-15-15.19,46.53,46.53,0,0,1-5.37-22.68q0-13,5.29-22.83a37,37,0,0,1,14.82-15.12,44.37,44.37,0,0,1,21.92-5.29A44,44,0,0,1,143.57,40a36.26,36.26,0,0,1,14.66,14.59,44.13,44.13,0,0,1,5.22,21.7A49.16,49.16,0,0,1,162.84,84.41ZM141.52,70.2a16.78,16.78,0,0,0-5.89-13.08,20.87,20.87,0,0,0-14.06-4.91A19.16,19.16,0,0,0,108.34,57Q103,61.73,101.76,70.2Z"/><path d="M210.7,38.75a29.6,29.6,0,0,1,15-3.78V57.19h-5.59q-10,0-15.05,4.69T200,78.21v41.73H178.87V36.18H200v13A29.74,29.74,0,0,1,210.7,38.75Z"/><path d="M261.12,36.18v83.76H240V36.18Z"/><circle class="cls-2" cx="250.53" cy="12.66" r="12.66"/><polygon class="cls-3" points="71.61 122.64 53.55 122.64 62.65 107.57 80.28 107.5 71.61 122.64"/><polyline class="cls-4" points="0.11 32.89 8.73 17.87 26.84 17.75"/><polygon class="cls-5" points="62.65 107.57 8.73 17.87 0.11 32.89 53.55 122.64 62.65 107.57"/><polygon class="cls-6" points="8.73 17.87 26.84 17.75 80.28 107.5 62.65 107.57 8.73 17.87"/><path d="M811.71,37.74a29.64,29.64,0,0,1,15-3.79V56.18h-5.59q-10,0-15,4.69T801.05,77.2v41.73H779.88V35.16h21.17v13A29.74,29.74,0,0,1,811.71,37.74Z"/><path d="M920,35.16v83.77H898.72V108.34a27.94,27.94,0,0,1-10.66,8.55,33.13,33.13,0,0,1-14.28,3.1,35.5,35.5,0,0,1-17.39-4.16,29.31,29.31,0,0,1-11.87-12.25q-4.31-8.08-4.31-19.28V35.16h21.17V81.28q0,10,5,15.35T880,102q8.78,0,13.76-5.36t5-15.35V35.16Z"/><polygon class="cls-7" points="690.29 14.14 747.75 14.04 757.54 29.24 717.39 29.2 761.87 103.79 744.24 103.86 690.29 14.14"/><polygon class="cls-8" points="681.7 29.24 690.29 14.14 744.24 103.86 735.14 118.93 681.7 29.24"/><polygon class="cls-3" points="753.2 118.93 735.14 118.93 744.24 103.86 761.87 103.79 753.2 118.93"/><polygon class="cls-3" points="726.38 44.38 748.86 44.38 757.54 29.24 717.39 29.2 726.38 44.38"/><path d="M965.46,51.54V92.68c0,2.86.69,4.94,2.07,6.21s3.71,1.92,7,1.92h10v18.12H971q-27.16,0-27.17-26.41v-41H933.69V33.89h10.13v-21h21.64v21h19V51.54Z"/><path d="M1065.08,36.88a29.1,29.1,0,0,1,11.74,12.44q4.23,8.2,4.22,19.72v49.89h-21.48V72q0-10.14-5.07-15.58t-13.82-5.45q-8.89,0-14,5.45T1021.49,72v47H1000V5.34h21.49V44.48a28,28,0,0,1,11-8.67,36.55,36.55,0,0,1,15.35-3.15A34.54,34.54,0,0,1,1065.08,36.88Z"/></g></g></svg>